<svg version="1.1" id="svg1" width="919.89276" height="911.38177" viewBox="0 0 919.89277 911.38177" sodipodi:docname="31a.svg" inkscape:version="1.3.2 (091e20ef0f, 2023-11-25)"
    xmlns:inkscape="http://www.inkscape.org/namespaces/inkscape"
    xmlns:sodipodi="http://sodipodi.sourceforge.net/DTD/sodipodi-0.dtd"
    xmlns="http://www.w3.org/2000/svg"
    xmlns:svg="http://www.w3.org/2000/svg">
    <defs id="defs1" />
    <sodipodi:namedview id="namedview1" pagecolor="#ffffff" bordercolor="#000000" borderopacity="0.25" inkscape:showpageshadow="2" inkscape:pageopacity="0.0" inkscape:pagecheckerboard="0" inkscape:deskcolor="#d1d1d1" showgrid="false" inkscape:zoom="0.609067" inkscape:cx="435.0917" inkscape:cy="508.15427" inkscape:window-width="1920" inkscape:window-height="1011" inkscape:window-x="0" inkscape:window-y="0" inkscape:window-maximized="1" inkscape:current-layer="layer1" />
    <g inkscape:groupmode="layer" id="layer1" inkscape:label="Layer 1" transform="translate(-72.107241,-26.671802)">
        <path style="fill:#000000" d="m 631.33335,936.77042 c -3.66667,-0.98298 -8.40189,-2.476 -10.52272,-3.31783 -2.63172,-1.04462 -9.19358,-1.25177 -20.66667,-0.65242 -20.48766,1.07027 -27.97341,-0.4924 -45.34967,-9.46684 -5.2418,-2.70726 -12.50975,-2.51605 -28.54091,0.75089 -11.36649,2.31635 -16.98106,2.66171 -35.54278,2.18631 -33.14648,-0.84894 -48.16299,-3.69206 -66.71059,-12.63053 -4.03333,-1.94375 -7.47708,-3.60167 -7.65278,-3.68427 -0.17569,-0.0826 -0.69396,-2.02275 -1.1517,-4.31146 -0.75959,-3.79797 0.0409,-5.0779 9.16836,-14.65974 5.50034,-5.77416 11.4186,-13.05232 13.1517,-16.1737 1.7331,-3.12137 4.79942,-8.48074 6.81405,-11.9097 16.06112,-27.33648 21.85492,-47.76496 23.89004,-84.23446 2.58104,-46.25237 -0.0606,-86.35773 -6.54294,-99.33334 -4.84221,-9.69264 -9.03285,-11.73853 -21.48871,-10.4909 -8.14071,0.81541 -9.28473,1.33291 -14.18802,6.41809 -2.93333,3.04215 -7.73333,9.85021 -10.66667,15.12902 -2.93333,5.27882 -5.78333,9.60069 -6.33333,9.60416 -0.55,0.003 -1,1.2063 -1,2.67297 0,1.46666 -0.45,2.69477 -1,2.72912 -0.55,0.0344 -3.1,3.18435 -5.66667,7 -5.58374,8.30088 -28.22548,31.15307 -36.27022,36.60734 -14.04471,9.52219 -33.17409,17.02066 -56.65965,22.20983 -18.47774,4.08269 -60.12702,1.87042 -73.07013,-3.88124 -2.2,-0.97763 -6.4,-2.20466 -9.33334,-2.72672 -2.93333,-0.52207 -6.83333,-1.73959 -8.66666,-2.70562 C 215.5,760.93335 208.6,758.29354 202,756.03312 c -6.6,-2.26041 -17.87063,-7.39258 -25.04585,-11.40482 -7.17523,-4.01223 -13.92523,-7.29497 -15,-7.29497 -1.07478,0 -1.95415,-0.56384 -1.95415,-1.25299 C 160,734.46539 140.07639,724 137.00192,724 c -1.28439,0 -2.33525,-0.6239 -2.33525,-1.38645 0,-2.61223 7.79822,-16.05294 10.22134,-17.61713 1.56456,-1.00996 3.8293,-4.72575 14.82877,-24.32975 12.28068,-21.88747 15.36926,-28.31731 14.58453,-30.36227 -0.44193,-1.15165 -6.09051,-4.83467 -12.55241,-8.18448 -16.99716,-8.81122 -35.16093,-23.48507 -62.256807,-50.29497 l -23.841242,-23.58963 3.126412,-4.45099 c 1.719527,-2.44805 3.65516,-4.67002 4.301408,-4.93772 1.25496,-0.51984 20.388069,-16.84207 39.772039,-33.92905 6.58494,-5.80462 11.81596,-11.47226 11.81596,-12.8022 0,-1.31254 -3.66622,-6.52544 -8.14716,-11.58423 -4.48094,-5.05879 -10.87948,-13.01208 -14.21898,-17.67398 -5.96679,-8.32958 -23.362943,-37.66855 -26.191777,-44.17298 -0.793146,-1.82371 -4.536906,-9.44604 -8.319465,-16.93851 -4.95582,-9.81646 -6.445969,-13.95554 -5.333333,-14.81404 0.849225,-0.65526 4.779832,-2.22317 8.73468,-3.48427 13.183133,-4.20373 52.121725,-22.56682 53.253815,-25.11402 0.24444,-0.55 1.56621,-1 2.93726,-1 1.37105,0 4.02105,-0.69631 5.88889,-1.54735 4.53164,-2.06475 4.41953,-6.22703 -0.52165,-19.36738 -9.25953,-24.62441 -12.76473,-38.35981 -18.78666,-73.61707 -5.49346,-32.16323 -6.07582,-29.47083 6.37105,-29.45533 5.68333,0.007 16.03333,-0.59259 23,-1.33259 34.94471,-3.71182 53.31227,-5.36296 59.57393,-5.35534 8.10736,0.01 8.30573,-0.43447 6.84183,-15.32494 -1.66887,-16.97547 -1.12112,-31.54478 2.354,-62.61199 C 223.99314,151.8246 225.98959,136.2 226.53965,134 c 1.17326,-4.69244 2.39636,-4.78917 17.46035,-1.38083 5.50001,1.24442 13.30001,2.46309 17.33334,2.70817 4.03333,0.24507 10.63333,1.14214 14.66667,1.99348 4.03333,0.85134 10.63333,2.14749 14.66666,2.88032 10.83033,1.96781 21.35219,5.06711 26.93083,7.9327 2.71195,1.39305 5.84812,2.53283 6.96926,2.53283 3.27068,0 5.70624,-5.20157 8.11607,-17.33334 2.39142,-12.0391 8.36563,-28.67408 15.17655,-42.258547 2.27734,-4.542202 4.14063,-8.617223 4.14063,-9.055601 0,-0.438378 1.85066,-4.82203 4.11258,-9.74145 6.52554,-14.192327 8.84278,-19.442801 9.68491,-21.944399 1.12773,-3.349997 3.02581,-2.917084 9.31145,2.123749 3.05675,2.451395 11.25772,7.348636 18.22439,10.882756 6.96667,3.534121 21.89931,11.128434 33.18365,16.876252 11.28434,5.747817 21.08234,10.450577 21.77333,10.450577 0.691,0 4.85636,3.6 9.25636,8 4.4,4.400003 8.54336,8.000003 9.20747,8.000003 0.66411,0 3.09977,-3.75 5.41259,-8.333337 2.31281,-4.583333 6.22145,-10.795128 8.68586,-13.803989 2.46441,-3.008861 4.48074,-6.182894 4.48074,-7.053407 0,-0.870513 2.25,-3.824339 5,-6.564058 11.82653,-11.782313 28.33334,-29.690585 28.33334,-30.738899 0,-1.949468 9.91302,-13.495759 11.59138,-13.501176 0.87526,-0.0028 3.57526,2.503449 6,5.569499 2.42474,3.066049 6.95824,8.244621 10.07445,11.507937 3.11621,3.263315 6.87355,7.887426 8.34964,10.275802 1.4761,2.388376 5.8459,6.782031 9.71067,9.763679 4.4724,3.45043 7.65371,7.154709 8.75122,10.189816 0.9484,2.62275 3.02897,6.195238 4.6235,7.938861 3.90891,4.274408 9.90091,12.459695 12.99328,17.749269 1.8073,3.091443 3.50652,4.333333 5.92909,4.333333 4.62554,0 11.89581,-3.18358 14.14162,-6.192489 2.74445,-3.676972 8.79033,-7.573106 18.49953,-11.921597 4.76541,-2.1343 11.34774,-5.928802 14.6274,-8.432226 5.175,-3.950166 17.8868,-11.548878 24.04155,-14.371285 1.1,-0.50443 2.6,-1.632365 3.33334,-2.506521 0.73333,-0.874156 2.94953,-1.964286 4.92488,-2.42251 1.97535,-0.458225 5.53268,-2.60609 7.90518,-4.773033 5.40438,-4.936146 11.34891,-6.439463 14.19786,-3.590513 2.13947,2.139476 2.79873,3.67274 9.26298,21.543507 2.1221,5.866667 5.69002,14.566667 7.9287,19.333334 10.04292,21.383643 19.06278,46.611413 19.09671,53.411823 0.0279,5.58838 2.95744,8.47081 7.47526,7.355 2.1313,-0.5264 5.9751,-1.26854 8.54176,-1.64921 2.56667,-0.38068 7.1061,-1.83787 10.08763,-3.23821 2.98154,-1.40034 7.13894,-2.54607 9.23867,-2.54607 2.09974,0 5.66031,-0.60348 7.91237,-1.34106 9.70683,-3.17912 49.50654,-11.99227 54.15645,-11.99227 3.6897,0 5.28759,0.64253 5.80268,2.33333 0.39096,1.28333 2.02611,11.93333 3.63367,23.66667 2.23234,16.29352 3.01781,29.49448 3.32487,55.87918 0.24679,21.20683 0.92841,35.07223 1.76528,35.9091 0.7861,0.7861 14.33738,1.79289 32.00851,2.37807 31.94684,1.05793 42.01568,2.29566 55.40321,6.81056 11.41236,3.84878 13.02396,4.85223 11.97916,7.45868 -2.13854,5.33503 -5.06627,18.40614 -8.71248,38.89774 -5.85356,32.89677 -8.56113,44.03572 -12.31567,50.66667 -1.86851,3.3 -4.08337,8.59962 -4.92191,11.77694 -1.27985,4.84951 -1.17919,6.30413 0.627,9.06072 1.18338,1.80607 3.76987,3.91458 5.74775,4.68557 4.90187,1.91077 9.63333,3.99197 22.92948,10.08587 6.23334,2.85686 13.45511,6.14268 16.04839,7.30181 2.59328,1.15913 9.09838,3.17289 14.45578,4.475 5.3574,1.30212 10.06703,3.21784 10.46586,4.25716 0.65066,1.69561 -0.57712,7.08879 -5.37944,23.62982 -0.84198,2.90009 -2.59431,6.18344 -3.89406,7.29632 -1.29976,1.11289 -2.36319,2.69984 -2.36319,3.52656 0,2.65041 -11.89656,24.72855 -17.70966,32.86634 -3.09302,4.32995 -8.28691,11.58481 -11.54196,16.12192 -3.25506,4.53712 -9.10506,11.65476 -13,15.81698 -3.89495,4.16223 -7.08172,8.09997 -7.08172,8.75055 0,1.37946 6.32538,7.45495 9.54714,9.16997 2.60997,1.38936 15.53654,12.5416 27.76458,23.95358 4.77856,4.45964 12.43828,10.69657 17.02162,13.85985 4.58333,3.16328 8.33333,5.99427 8.33333,6.2911 0,2.56446 -5.32839,9.0882 -12.85643,15.7406 -4.97916,4.4 -13.57339,12.7269 -19.09829,18.50422 -15.4949,16.20283 -44.56248,38.23662 -62.54618,47.41121 -6.51192,3.32214 -7.01759,6.27166 -2.16577,12.63272 1.83333,2.40363 3.33333,5.09224 3.33333,5.97471 0,0.88246 1.38915,2.92582 3.08698,4.54081 1.69784,1.61498 4.52367,6.53633 6.27961,10.93633 1.75595,4.4 4.62303,10.1 6.37129,12.66667 1.74827,2.56667 4.69868,7.64715 6.55646,11.28996 1.85778,3.64281 5.10156,8.23353 7.20839,10.20161 2.10684,1.96808 3.83061,4.2341 3.83061,5.03561 0,0.80151 -4.50366,3.62399 -10.00813,6.27219 -5.50446,2.64819 -10.31582,5.31277 -10.69191,5.92129 -1.91287,3.0951 -38.29522,21.22812 -50.6333,25.23572 -5.13333,1.66739 -11.13333,3.79357 -13.33333,4.72485 -8.06012,3.41192 -31.44442,8.72647 -49.63604,11.28078 -14.92196,2.09521 -50.72017,-3.74911 -64.14908,-10.47281 -2.68485,-1.34427 -6.51813,-2.83734 -8.5184,-3.31792 -5.35295,-1.28609 -25.4631,-13.1694 -33.08284,-19.54901 -3.63675,-3.04486 -10.84152,-11.16296 -16.01059,-18.04024 -5.16907,-6.87727 -9.99369,-12.87209 -10.72138,-13.32182 -2.01874,-1.24765 -7.56712,-10.45549 -14.07116,-23.35185 -3.87441,-7.68227 -7.49383,-12.87579 -10.65208,-15.2847 -4.40484,-3.35973 -5.45547,-3.58595 -13.2668,-2.85651 -8.44024,0.78816 -14.77988,3.13164 -17.52516,6.47827 -2.09786,2.55739 -6.83665,17.67102 -8.46969,27.01274 -2.27645,13.02234 -3.73468,56.07083 -2.44148,72.07517 1.0213,12.63939 3.83061,30.87534 7.80537,50.66667 1.26052,6.27644 13.81443,35.38219 19.94037,46.23097 2.36101,4.18124 6.87972,9.54812 10.10357,12 3.20774,2.43963 6.92646,6.29843 8.26382,8.5751 2.66307,4.5335 16.42759,17.07029 21.82926,19.88219 1.86873,0.97279 5.07507,4.85059 7.12519,8.61734 4.79926,8.81783 4.04414,12.68595 -2.86661,14.68423 -8.09597,2.34099 -32.07511,2.813 -39.65627,0.78059 z m 33.13758,-10.04134 c 2.06622,-2.06621 -2.30799,-7.26149 -10.70831,-12.71836 -4.26944,-2.77343 -11.66261,-9.06318 -16.42927,-13.97723 -4.76667,-4.91405 -9.56667,-9.2644 -10.66667,-9.66744 -1.1,-0.40304 -5.27189,-6.95028 -9.27088,-14.54942 -3.99898,-7.59915 -8.64898,-15.85036 -10.33333,-18.33603 -1.68435,-2.48566 -3.06246,-6.16023 -3.06246,-8.16569 0,-2.00547 -0.93528,-6.27174 -2.0784,-9.48061 -7.3679,-20.68246 -10.32369,-34.24063 -11.30031,-51.8343 -0.54954,-9.9 -1.67758,-26.02234 -2.50674,-35.82742 -0.9712,-11.48458 -1.04971,-18.37912 -0.22067,-19.37805 0.7984,-0.96201 0.81748,-2.29286 0.0503,-3.50591 -1.68716,-2.6676 -1.58701,-10.61293 0.23029,-18.26949 8.32837,-35.08867 11.20415,-43.01966 16.53563,-45.60281 2.17613,-1.05436 10.18198,-2.67974 17.79079,-3.61197 7.6088,-0.93222 14.11359,-1.97435 14.45507,-2.31584 1.33016,-1.33015 -1.15454,-5.72395 -6.14148,-10.86028 -4.36454,-4.49527 -5.36825,-6.59401 -6.15145,-12.86254 -0.80856,-6.47147 -0.44818,-8.57758 2.6484,-15.47767 5.49319,-12.24045 10.40298,-16.21464 23.62613,-19.12396 6.08436,-1.33866 15.07706,-2.44821 19.98378,-2.46566 4.90673,-0.0174 9.29214,-0.63173 9.74536,-1.36507 C 681.11991,596.6 683.21991,596 685.33335,596 c 4.78217,0 6.52096,-2.35872 2.38786,-3.23921 -1.67999,-0.35789 -11.36681,-0.84451 -21.52625,-1.08136 -14.91217,-0.34765 -18.76722,-0.83474 -20.00512,-2.52768 -0.84337,-1.15337 -2.95022,-2.54672 -4.68189,-3.09633 -2.92083,-0.92704 -3.10389,-1.53722 -2.53157,-8.43856 0.55385,-6.67877 1.14758,-7.88478 5.80799,-11.79743 2.85509,-2.39699 6.66001,-4.72684 8.45537,-5.17745 1.79536,-0.45061 4.80088,-1.89189 6.67895,-3.20286 1.87806,-1.31097 5.06466,-2.78251 7.08132,-3.27009 2.01667,-0.48757 3.66667,-1.47507 3.66667,-2.19443 0,-0.71936 0.91711,-1.30793 2.03802,-1.30793 1.12091,0 5.6038,-1.8 9.96198,-4 4.35818,-2.2 8.8599,-4 10.00382,-4 1.14393,0 2.43598,-0.92801 2.87123,-2.06224 0.43524,-1.13423 4.61641,-3.7966 9.29148,-5.91638 5.17419,-2.34609 8.50014,-4.66942 8.50014,-5.93776 0,-1.14599 -0.52342,-2.08362 -1.16314,-2.08362 -2.31746,0 -21.6823,6.72024 -24.55612,8.52178 -1.62107,1.01623 -5.34741,2.59275 -8.28074,3.50338 -2.93334,0.91063 -6.12663,2.2869 -7.0962,3.05836 -5.16563,4.11016 -17.79866,7.67609 -31.57047,8.91141 -20.93904,1.87822 -19.33333,2.24659 -19.33333,-4.43535 0,-4.89161 0.82616,-6.67411 5.40731,-11.66667 2.97402,-3.2411 7.71056,-9.21655 10.52565,-13.27877 2.81509,-4.06222 9.13875,-10.96222 14.05259,-15.33333 4.91383,-4.37112 11.86122,-10.69569 15.43863,-14.05462 3.57741,-3.35893 6.6856,-5.56351 6.90708,-4.89906 0.22148,0.66444 2.78755,-1.76886 5.70238,-5.40733 2.91483,-3.63848 7.24969,-7.96124 9.63302,-9.60615 2.38334,-1.6449 4.33334,-3.55382 4.33334,-4.24204 0,-1.80758 -5.53068,0.13967 -8.7526,3.08163 -1.51394,1.38238 -3.39574,2.51342 -4.18179,2.51342 -0.78604,0 -4.64737,3.07122 -8.58073,6.82493 -3.93335,3.75371 -9.84819,8.57221 -13.14407,10.70777 -3.29589,2.13557 -10.59876,8.0623 -16.2286,13.17053 -5.62984,5.10823 -14.82065,12.32372 -20.42401,16.03442 -8.38321,5.55159 -11.05893,6.67431 -15.10474,6.33788 -4.57517,-0.38045 -4.94439,-0.73679 -5.31391,-5.12852 -0.62357,-7.41123 15.66486,-47.68284 21.39711,-52.90235 1.28334,-1.16854 2.35936,-3.08163 2.39117,-4.25131 0.0582,-2.14101 0.67323,-3.25488 12.33244,-22.33549 12.42148,-20.32808 17.18967,-27.78676 18.18874,-28.45187 0.55571,-0.36996 1.41145,-2.31165 1.90162,-4.31487 0.49018,-2.00321 2.58828,-5.60321 4.66245,-8 4.007,-4.63024 5.99881,-9.9067 4.16703,-11.0388 -0.60841,-0.37602 -2.4731,1.27338 -4.14376,3.66534 -1.67065,2.39196 -5.24204,7.04901 -7.93641,10.34901 -2.69437,3.3 -5.72335,7.5633 -6.73107,9.474 -5.62851,10.67207 -10.98126,18.526 -12.62615,18.526 -1.03,0 -1.87272,0.9 -1.87272,2 0,1.1 -1.35,3.34889 -3,4.99753 -1.65,1.64864 -4.26091,5.69864 -5.80203,9 -1.54111,3.30136 -5.06987,8.70247 -7.84169,12.00247 -2.77181,3.3 -7.45994,9.6 -10.41805,14 -2.95811,4.4 -7.67935,10.78327 -10.49165,14.18504 -2.81229,3.40177 -5.11325,6.7511 -5.11325,7.44296 0,0.69185 -2.1886,1.92962 -4.86356,2.75059 -3.82081,1.17264 -5.82188,1.09225 -9.33333,-0.37493 -4.41518,-1.84478 -4.46978,-1.97253 -4.46978,-10.45964 0,-6.40739 0.50853,-8.78719 2,-9.35952 1.1,-0.42211 2,-1.81625 2,-3.09808 0,-1.28183 0.83181,-4.75066 1.84847,-7.70851 3.43885,-10.00493 6.37692,-20.97896 6.78116,-25.32843 0.22124,-2.38051 1.0047,-5.46549 1.74101,-6.85551 0.73631,-1.39002 3.27084,-10.3273 5.6323,-19.86064 2.36146,-9.53333 5.15137,-19.00095 6.1998,-21.03915 1.04843,-2.03821 1.51095,-4.34542 1.02782,-5.12714 -0.48313,-0.78172 -0.2917,-2.7141 0.4254,-4.29418 2.96179,-6.52605 5.98664,-18.14375 5.2344,-20.10406 -1.08681,-2.83218 -3.54593,-2.67436 -3.60227,0.2312 -0.0249,1.28333 -1.20452,4.73333 -2.62142,7.66667 -1.4169,2.93333 -2.59654,6.64792 -2.62143,8.25464 -0.0249,1.60672 -0.57722,3.25009 -1.22742,3.65194 -0.6502,0.40185 -1.589,2.98726 -2.08622,5.74536 -0.49722,2.7581 -2.03499,7.41472 -3.41727,10.34806 C 587.93206,403.6 584.69293,414.1 582.11627,424 c -7.10118,27.28402 -16.36304,54.71451 -19.65878,58.22267 -3.58205,3.81292 -6.97642,3.94481 -11.42698,0.444 C 549.16594,481.2 546.54241,480 545.20044,480 c -1.34196,0 -2.97869,-1.05 -3.63716,-2.33333 -1.26123,-2.45809 -3.00196,-19.06465 -3.529,-33.66667 -0.70295,-19.4758 -2.20829,-46.2707 -2.82773,-50.33333 -0.84826,-5.56339 -2.70549,-5.56339 -3.65213,0 -0.40553,2.38333 -1.34852,7.33333 -2.09553,11 -0.74701,3.66666 -2.00094,18.88078 -2.78651,33.80915 -1.80786,34.35542 -2.80203,39.36875 -8.25489,41.6274 -2.24555,0.93013 -6.52947,1.73742 -9.51984,1.79397 L 503.46063,482 l -3.74138,-8.93553 c -2.05776,-4.91454 -4.6908,-12.71454 -5.85119,-17.33333 -1.16039,-4.6188 -2.93133,-9.68995 -3.93542,-11.26923 -1.53978,-2.42186 -4.48159,-12.61459 -11.22591,-38.89544 -0.62576,-2.43844 -2.01876,-5.13844 -3.09555,-6 -1.07678,-0.86156 -2.28905,-4.61111 -2.69393,-8.33234 -1.18174,-10.86137 -8.66101,-30.60147 -10.78844,-28.47404 -1.70636,1.70636 2.36393,20.79742 7.07377,33.17849 1.52146,3.99956 3.73868,12.9803 4.92716,19.95721 1.18848,6.97691 3.56425,15.85856 5.27949,19.73702 1.71523,3.87845 4.05601,12.48369 5.20172,19.12276 1.14572,6.63907 3.27696,14.41114 4.73609,17.27128 3.76575,7.38148 3.75779,22.86833 -0.0137,26.63982 -1.46666,1.46666 -3.90049,2.66666 -5.40849,2.66666 -3.20461,0 -9.30426,-6.27153 -12.80316,-13.16392 -1.35026,-2.65984 -3.4438,-5.57722 -4.65231,-6.48306 -1.20851,-0.90584 -5.58714,-6.74162 -9.73029,-12.96839 -4.14315,-6.22678 -8.25437,-12.08563 -9.13604,-13.01968 -0.88167,-0.93406 -3.3036,-4.20349 -5.38206,-7.26541 -2.07847,-3.06192 -4.57189,-5.87138 -5.54094,-6.24324 -0.96906,-0.37186 -2.17126,-2.53981 -2.67156,-4.81768 -0.5003,-2.27786 -2.95688,-6.82359 -5.45906,-10.10163 -2.50218,-3.27803 -4.54942,-6.55487 -4.54942,-7.28186 0,-0.72699 -0.53496,-1.32179 -1.18879,-1.32179 -0.65383,0 -1.59967,-1.65 -2.10187,-3.66667 -0.50219,-2.01667 -3.72463,-6.96667 -7.16098,-11 -3.43635,-4.03333 -7.10138,-9.00104 -8.1445,-11.03935 -1.54915,-3.02709 -2.21185,-3.39076 -3.61749,-1.98512 -1.40563,1.40563 -0.78371,3.67334 3.39485,12.37869 5.15993,10.74985 15.46374,27.6396 20.86282,34.19782 1.60833,1.95363 5.98652,9.51368 9.72931,16.80012 3.74279,7.28645 7.59063,13.90004 8.55077,14.69688 2.41292,2.00256 16.61833,32.72436 19.6169,42.42519 1.96912,6.37038 0.789,9.63755 -4.50445,12.47052 -4.29251,2.29728 -8.54835,0.38081 -11.95286,-5.38257 -1.549,-2.62224 -3.37095,-3.89551 -5.57417,-3.89551 -3.17894,0 -17.26301,-8.67451 -20.58709,-12.67978 C 420.41553,500.8941 418.97646,500 418.12454,500 c -0.85193,0 -4.82846,-3.3518 -8.83675,-7.44844 -4.00828,-4.09663 -9.96903,-9.31576 -13.24611,-11.59805 -3.27707,-2.28229 -7.17707,-5.48049 -8.66666,-7.10711 -10.05339,-10.97824 -24.19592,-20.02287 -19.0447,-12.17973 2.55495,3.8901 13.01073,14.33333 14.35057,14.33333 0.5686,0 1.36159,0.85417 1.76221,1.89816 0.40061,1.04398 3.9148,4.27247 7.80931,7.1744 3.89451,2.90194 12.78093,10.81767 19.7476,17.59052 6.96667,6.77286 14.91667,13.7519 17.66667,15.50899 2.75,1.75709 5,3.73823 5,4.40252 0,0.6643 2.46512,3.77351 5.47804,6.90936 5.18074,5.39211 5.44422,6.05355 4.85485,12.18728 -0.34276,3.56716 -1.1981,7.06064 -1.90076,7.76331 -0.8109,0.8109 -6.51797,0.82253 -15.62398,0.0318 -12.04471,-1.04586 -15.14366,-1.79822 -19.31562,-4.68939 -3.15337,-2.18529 -6.7701,-3.44366 -9.89754,-3.44366 -3.49185,0 -4.92833,-0.58294 -4.92833,-2 0,-1.29606 -1.29894,-2 -3.69049,-2 -2.02976,0 -5.77976,-1.40427 -8.33333,-3.1206 -5.5765,-3.74814 -16.38149,-7.54606 -21.46834,-7.54606 -8.63125,0 -4.73303,6.83992 5.65665,9.92533 3.5166,1.04431 8.9682,3.37176 12.11466,5.17209 3.14647,1.80034 7.88262,3.95733 10.52478,4.79332 2.64217,0.83599 6.19676,3.00257 7.89909,4.81462 1.70233,1.81205 3.66202,3.29464 4.35486,3.29464 2.4517,0 25.10133,15.13946 26.46686,17.69098 1.64241,3.06887 0.51457,9.93146 -2.22795,13.55635 -1.76227,2.32926 -4.16115,2.63812 -24.62463,3.17053 -18.23852,0.47452 -22.67216,0.95409 -22.67216,2.45234 0,2.91142 4.78755,4.03649 21.33333,5.01332 13.47847,0.79574 16.3495,1.40997 23.73347,5.07758 12.88651,6.40073 18.92523,15.03308 18.91489,27.0389 -0.005,5.48181 -12.33192,25.95065 -15.64835,25.98349 -0.91667,0.009 -1.66667,0.88932 -1.66667,1.95609 0,2.19069 3.71977,2.95612 18.84466,3.87775 11.7137,0.71378 16.83632,2.90243 24.82201,10.60527 l 5.66666,5.46595 0.0239,10.05572 c 0.0131,5.53065 0.95304,15.75573 2.08863,22.72239 2.57037,15.76872 3.91655,68.96478 2.09198,82.66667 -3.84706,28.88991 -5.76549,37.86082 -10.89342,50.93941 -11.76221,29.99902 -19.25626,41.20018 -35.68422,53.33622 -7.99106,5.90334 -7.85132,7.70729 0.8131,10.4966 2.69134,0.86641 5.49335,2.02172 6.22668,2.56735 0.73333,0.54564 3.43333,1.39016 6,1.87672 2.56667,0.48656 7.66667,1.52307 11.33333,2.30334 3.66667,0.78028 19.30417,1.69906 34.75001,2.04174 25.28338,0.56093 29.16067,0.34799 38.88882,-2.13583 14.36475,-3.66765 19.2304,-3.48578 28.89872,1.08017 14.90772,7.0403 23.16775,8.63741 40.30626,7.79334 11.88135,-0.58516 16.94001,-0.28117 22.2653,1.33799 13.539,4.11656 22.98822,5.54092 32.83028,4.94882 5.46666,-0.32888 10.50585,-1.16444 11.1982,-1.85679 z m 141.52909,-161.2161 c 2.2,-0.76035 8.8,-2.29402 14.66666,-3.40815 5.86667,-1.11413 16.66667,-3.87516 24,-6.13562 7.33334,-2.26046 16.93334,-5.06324 21.33334,-6.22839 4.4,-1.16515 9.38749,-3.19933 11.08331,-4.5204 1.69582,-1.32106 5.29582,-3.107 8,-3.96874 2.70418,-0.86174 6.11669,-2.73179 7.58335,-4.15567 5.00784,-4.86174 16.96158,-13.11922 20.15027,-13.91953 1.75069,-0.4394 3.18307,-1.65961 3.18307,-2.71159 0,-2.12829 -14.85848,-24.52433 -18.0005,-27.13197 -1.09972,-0.91269 -2.00174,-2.63597 -2.00449,-3.82951 -0.003,-1.19354 -1.35274,-4.26246 -3,-6.81983 -1.64725,-2.55736 -5.09501,-8.85736 -7.66168,-14 l -4.66667,-9.35025 -5.23435,0.42028 c -2.87889,0.23116 -6.98083,1.32343 -9.11542,2.42727 -5.34182,2.76236 -23.11427,4.43393 -47.44182,4.4621 -18.84929,0.0218 -21.47085,-0.28386 -33.33334,-3.88677 -7.08129,-2.15075 -15.40741,-4.30051 -18.50248,-4.77723 -3.09508,-0.47673 -6.99508,-1.93455 -8.66667,-3.23961 -1.67159,-1.30506 -5.57257,-3.65899 -8.66885,-5.23096 -3.09627,-1.57196 -7.59627,-4.57123 -10,-6.66503 -2.40372,-2.09381 -6.39002,-4.84153 -8.85844,-6.10606 -2.46841,-1.26452 -4.78839,-3.44772 -5.1555,-4.85156 -0.36712,-1.40383 -1.10989,-2.55243 -1.65061,-2.55243 -0.54072,0 -2.65029,-1.54507 -4.68794,-3.4335 -4.40312,-4.08068 -6.47465,-3.7798 -17.53503,2.54688 -22.97614,13.14266 -36.48288,22.07669 -36.48288,24.13158 0,2.05495 7.2555,7.42171 10.03366,7.42171 1.17791,0 3.1522,0.53817 4.38733,1.19593 1.23512,0.65776 7.58669,1.84714 14.11461,2.64307 6.52791,0.79592 12.82791,2.30634 14,3.35647 1.17208,1.05014 7.53106,3.22453 14.13106,4.83198 6.6,1.60745 15,3.69665 18.66667,4.64266 3.66667,0.94602 14.16667,3.52559 23.33334,5.73239 9.16666,2.2068 19.18805,4.95621 22.26976,6.1098 3.0817,1.15359 8.7817,2.67984 12.66666,3.39167 12.0319,2.20457 14.88794,2.9617 20.39691,5.40719 2.93333,1.30213 6.38333,2.72098 7.66667,3.153 1.28333,0.43201 2.33333,1.48971 2.33333,2.35043 0,2.3064 -27.52608,0.32874 -40.22215,-2.88984 -5.62218,-1.42528 -12.82218,-2.60573 -16,-2.62323 -6.01452,-0.0331 -7.38005,-0.33021 -27.11119,-5.89869 -6.6,-1.86263 -17.4,-3.78659 -24,-4.27545 -8.49531,-0.62925 -12.97507,-1.60754 -15.33862,-3.34966 -2.13038,-1.57024 -7.67954,-2.99116 -15.33334,-3.92626 -6.59709,-0.80599 -13.61491,-2.30229 -15.59516,-3.32512 -4.16557,-2.15156 -17.84089,-2.50895 -19.08328,-0.49871 -0.46262,0.74852 0.85197,3.94989 2.92131,7.11415 2.06933,3.16425 5.66613,8.70182 7.99288,12.3057 2.32675,3.60389 6.08891,9.25252 8.36035,12.55252 2.27145,3.3 5.95557,8.82175 8.18694,12.27054 3.54528,5.47957 20.92413,22.39613 23.00816,22.39613 0.41929,0 2.93407,1.47377 5.5884,3.27505 12.23487,8.3028 40.34385,16.58938 61.29237,18.06909 8.06666,0.5698 16.76666,1.65215 19.33333,2.40524 4.89553,1.4364 6.15805,1.34639 12.66667,-0.90307 z m -512.00001,-4.19546 c 21.75988,-2.40997 45.81925,-8.6814 56.43111,-14.70961 3.17045,-1.80102 8.12303,-4.50065 11.00573,-5.99919 6.05947,-3.14994 20.91334,-19.30291 22.84439,-24.84233 0.72213,-2.07152 2.00427,-3.78067 2.8492,-3.79812 3.99918,-0.0826 26.12403,-39.24715 23.59833,-41.77284 -0.88767,-0.88767 -2.24696,-0.50477 -4.07229,1.14713 -2.95255,2.67202 -7.58784,3.62499 -33.32314,6.85088 -9.16667,1.14904 -17.50359,2.77557 -18.52649,3.61452 -1.89174,1.55155 -7.3861,2.84773 -28.80684,6.79584 -6.6,1.21647 -14.4,2.81614 -17.33334,3.55482 -2.93333,0.73869 -12.83556,2.11291 -22.00494,3.05384 -9.16939,0.94092 -18.76939,2.38694 -21.33334,3.21336 -2.56394,0.82642 -7.49773,1.85336 -10.96397,2.28209 -3.46624,0.42872 -6.65165,1.34483 -7.07869,2.03579 -1.07506,1.73948 -9.52853,1.57697 -12.93993,-0.24876 -2.60547,-1.39441 -2.32947,-1.69343 3.75433,-4.06742 3.6116,-1.4093 12.86654,-3.75994 20.56654,-5.22363 7.7,-1.4637 17.6,-3.78946 22,-5.16835 14.77423,-4.63003 52.73707,-14.88229 57.72635,-15.5896 2.71718,-0.38521 6.831,-1.54313 9.14183,-2.57316 C 349.84567,668.84275 353.355,668 355.33334,668 c 1.97834,0 5.48767,-0.88312 7.7985,-1.96248 2.31082,-1.07936 9.0015,-3.1477 14.86817,-4.59631 5.86666,-1.44861 13.94742,-3.5655 17.95724,-4.70419 4.00981,-1.13869 8.73328,-2.07035 10.49659,-2.07035 6.93359,0 -0.38787,-4.55145 -42.15639,-26.20685 -15.47032,-8.02078 -14.69959,-8.06682 -25.78466,1.54018 -10.83382,9.38924 -38.83921,25.27157 -52.51278,29.78088 -4.4,1.45105 -15.9523,3.59728 -25.67178,4.76941 -21.50458,2.59337 -38.4794,1.78138 -46.32823,-2.2161 -6.72466,-3.42494 -23.63236,-4.85244 -26.75716,-2.25908 -1.16464,0.96656 -3.5524,4.58897 -5.30613,8.04979 -1.75373,3.46082 -3.74044,6.49851 -4.41491,6.75042 -0.67447,0.25191 -3.3888,4.55031 -6.03184,9.55201 -2.64304,5.0017 -6.87875,12.21743 -9.41268,16.03497 -6.97407,10.50688 -10.13464,18.2725 -8.60219,21.1359 1.45148,2.71213 13.4609,10.01366 18.52491,11.26284 1.83334,0.45225 4.53334,1.87581 6,3.16348 3.40969,2.99355 13.30351,7.97548 15.83883,7.97548 1.79852,0 3.94538,0.94245 14.82784,6.50927 2.2,1.12538 6.7,2.47136 10,2.99105 23.41769,3.68787 25.40159,4.15359 30.66667,7.19899 3.85523,2.22992 27.1973,2.55298 44.66667,0.61821 z M 848.84178,654.13711 c 13.68113,-1.86171 35.67549,-9.64116 47.15824,-16.67998 1.1,-0.67429 7.77292,-4.05552 14.8287,-7.51385 7.88296,-3.86375 15.5934,-8.86855 20,-12.98186 3.94422,-3.68169 12.68896,-11.72214 19.43277,-17.86765 7.87016,-7.17194 12.86442,-12.84108 13.94502,-15.82942 0.92595,-2.56067 3.05829,-5.55652 4.73853,-6.65746 4.3988,-2.8822 4.22695,-9.35699 -0.27835,-10.48775 -1.83334,-0.46014 -3.33334,-1.42518 -3.33334,-2.14454 0,-1.42516 0.0186,-1.40665 -16.002,-15.9746 -6.04842,-5.5 -14.1705,-13.15 -18.04906,-17 -7.94448,-7.88597 -10.89843,-8.54637 -17.86973,-3.99502 -2.5231,1.64726 -6.56168,4.19502 -8.97461,5.66169 -2.41294,1.46666 -8.10827,4.95639 -12.65631,7.75495 C 883.56946,545.47484 869.00584,552 865.93963,552 c -0.88035,0 -4.28149,1.18587 -7.5581,2.63527 -8.65499,3.82852 -16.84959,5.1661 -36.62389,5.97801 -22.10369,0.90756 -33.80043,-1.23328 -58.78403,-10.75917 -11.28154,-4.30149 -17.37781,-4.16422 -23.27735,0.52415 -7.638,6.06992 -30.36291,29.89284 -30.36291,31.82997 0,2.20604 18.42632,2.41029 32.66666,0.36211 8.57008,-1.23263 35.6792,-2.33232 117.00001,-4.74615 20.80691,-0.61761 30.33333,-0.46213 30.33333,0.49507 0,1.78009 -3.21072,3.01407 -7.84238,3.01407 -1.99336,0 -4.23599,0.61171 -4.98364,1.35935 -1.76454,1.76454 -32.51251,6.32167 -53.9687,7.99866 -9.23709,0.72195 -19.73709,2.20526 -23.33333,3.29622 -3.59624,1.09097 -11.03862,1.9946 -16.53862,2.00808 -5.5,0.0135 -13.6,0.58988 -18,1.28091 -4.4,0.69102 -17.54033,1.55681 -29.20073,1.92399 -11.6604,0.36717 -21.80272,1.26958 -22.5385,2.00535 -1.34192,1.34192 4.70368,10.79411 6.90389,10.79411 0.56593,0 6.68539,5.41627 13.59882,12.03616 9.70298,9.29101 15.26164,13.39636 24.37206,18 6.49121,3.28011 13.14821,5.96384 14.79335,5.96384 1.64513,0 4.07713,1.2 5.40445,2.66667 1.34553,1.4868 4.23915,2.72329 6.53998,2.79466 2.26967,0.0704 7.12668,0.94268 10.79335,1.93841 7.89934,2.14517 32.77998,1.55806 53.50843,-1.26263 z m -579.50844,-0.77194 c 3.3,-0.67814 10.2,-1.87992 15.33333,-2.67061 12.12901,-1.86825 24.21165,-7.98422 34.88801,-17.65957 4.67416,-4.23591 9.39533,-7.70166 10.4915,-7.70166 1.09616,0 3.0342,-1.69923 4.30676,-3.77607 1.27255,-2.07684 6.06373,-7.24147 10.64707,-11.47695 4.58333,-4.23548 8.33333,-8.48296 8.33333,-9.43883 0,-1.16008 -2.54919,-1.92954 -7.66667,-2.31413 -4.21666,-0.31689 -12.46666,-1.24218 -18.33333,-2.05619 -14.06541,-1.95161 -44.46114,-4.97069 -84.66667,-8.40958 -18.14799,-1.55225 -34.63464,-3.61122 -37.09456,-4.63263 -2.43535,-1.01121 -9.57006,-2.73612 -15.85492,-3.83312 -6.28486,-1.097 -11.74231,-2.30984 -12.12766,-2.69519 -1.92867,-1.92867 2.92279,-2.41721 24.04635,-2.42144 22.86825,-0.005 42.6994,1.19434 82.36413,4.97948 11.36666,1.0847 31.33549,1.99524 44.37518,2.02342 31.23642,0.0675 31.05457,0.51084 9.03109,-22.01611 -6.64012,-6.79192 -12.07294,-13.01814 -12.07294,-13.83605 0,-0.81791 -1.41291,-2.13087 -3.13979,-2.91769 -2.487,-1.13316 -4.21959,-0.88819 -8.33333,1.1782 -2.85645,1.43484 -9.39355,3.90847 -14.52688,5.49697 -5.13333,1.58849 -11.27017,3.50524 -13.63741,4.25943 -6.54148,2.08409 -17.01758,3.87823 -31.02926,5.31408 -16.96643,1.73864 -15.87786,1.72907 -22.66667,0.19915 -3.3,-0.74368 -10.69797,-2.36775 -16.43995,-3.60904 -11.96131,-2.58576 -26.69464,-8.35961 -35.50305,-13.91329 -3.33135,-2.1004 -7.35157,-4.206 -8.93382,-4.67909 -1.58226,-0.47309 -3.21342,-1.73733 -3.62482,-2.80942 -0.4114,-1.07208 -1.6605,-1.94924 -2.77579,-1.94924 -1.11528,0 -5.48411,-2.39922 -9.70851,-5.33159 -4.2244,-2.93238 -8.81213,-5.33238 -10.19496,-5.33333 -1.38283,-9.6e-4 -7.04209,4.34825 -12.57613,9.66492 -21.48868,20.64462 -28.43455,27.15891 -33.483816,31.40331 -4.874206,4.09725 -5.141703,4.68044 -3.848424,8.39034 0.764438,2.19287 4.23839,7.11138 7.71989,10.93003 3.48151,3.81864 6.75386,8.29159 7.2719,9.93989 0.51803,1.64829 2.42284,3.3686 4.2329,3.82289 1.81005,0.4543 4.18255,2.55004 5.27221,4.65721 1.08966,2.10717 3.61871,4.88012 5.62012,6.16211 2.00141,1.28199 6.81227,4.88764 10.6908,8.01255 3.87854,3.12492 7.54724,5.68167 8.15266,5.68167 0.60542,0 3.13207,1.77503 5.61478,3.94451 5.54772,4.84781 16.25702,10.20161 23.79377,11.89501 3.10237,0.69705 6.93357,2.41326 8.51379,3.8138 1.58022,1.40054 5.57312,3.35603 8.87312,4.34555 3.3,0.98952 7.5,2.52148 9.33333,3.40437 1.83334,0.88288 4.83334,2.29879 6.66667,3.14646 7.22375,3.34 50.62535,5.28994 62.66667,2.81547 z m 157.50662,-12.04363 c 5.45507,-5.18929 5.52522,-5.37303 4.69386,-12.29478 -0.46418,-3.86472 -0.84918,-8.60775 -0.85556,-10.54008 -0.0158,-4.79751 -4.85453,-7.69463 -16.51188,-9.88629 -12.63157,-2.37482 -18.30211,-3.86563 -21.77675,-5.7252 -3.4776,-1.86116 -15.40787,-2.01967 -21.45605,-0.28507 -2.41019,0.69123 -5.53626,2.64123 -6.94684,4.33333 C 361.23783,610.221 360.43285,616 362.72243,616 c 0.76399,0 2.66185,1.18576 4.21745,2.63503 1.55561,1.44927 4.98052,3.31475 7.61092,4.14551 2.6304,0.83076 6.89464,3.16245 9.4761,5.18153 2.58145,2.01908 7.27992,4.99053 10.44104,6.60321 3.16112,1.61268 9.35384,5.587 13.76161,8.83181 9.08741,6.68977 9.43714,6.65076 18.61041,-2.07555 z m 230.65514,1.49566 c 9.0438,-1.45675 18.25539,-5.39835 21.71156,-9.29029 1.39699,-1.57314 3.36583,-2.86024 4.37518,-2.86024 1.00936,0 2.17832,-0.89416 2.59769,-1.98702 0.41937,-1.09285 4.33047,-3.58822 8.69133,-5.54526 10.2166,-4.58494 11.67093,-7.15362 7.5642,-13.36008 l -3.10171,-4.68757 -22,0.6905 c -12.1,0.37978 -24.12481,1.3289 -26.72179,2.10916 -5.77235,1.73428 -13.31037,7.14302 -15.53525,11.14698 -2.473,4.45046 -2.01957,14.22792 0.96483,20.80535 2.96905,6.54358 1.0097,6.27157 21.45396,2.97847 z m 30.46342,-59.69512 12.36817,-0.87792 3.50333,-5.50443 c 5.91587,-9.29504 14.02851,-19.12495 16.90452,-20.48287 2.29029,-1.08136 11.26547,-15.5097 11.26547,-18.11016 0,-0.44735 -2.26821,-0.81337 -5.04047,-0.81337 -4.43658,0 -25.20698,7.61133 -28.91708,10.59668 -1.8832,1.51533 -34.53451,19.75026 -42.45616,23.7107 -6.91954,3.45943 -8.10565,7.33009 -2.49113,8.12938 1.68735,0.24021 3.39541,1.29021 3.79569,2.33333 0.82666,2.15424 10.5692,2.47368 31.06766,1.01866 z m -275.56324,-4.72834 c 9.08653,-3.03003 8.31886,-4.15058 -9.06194,-13.22732 -5.86667,-3.06374 -13.59504,-7.87954 -17.17417,-10.70176 -3.57913,-2.82223 -7.17913,-5.13261 -8,-5.13419 -0.82087,-0.002 -4.96584,-1.83371 -9.21104,-4.07142 -9.69694,-5.11142 -38.28146,-10.41799 -38.28146,-7.10677 0,1.08919 13.53633,16.89567 15.59766,18.21353 2.75605,1.76199 13.94145,13.98466 17.23949,18.83815 1.9341,2.84629 4.54785,4.86243 6.81656,5.25803 5.92871,1.03379 37.41367,-0.5139 42.0749,-2.06825 z m 414.40014,-26.2843 c 4.83747,-0.42686 9.63747,-1.46159 10.66666,-2.29941 1.0292,-0.83782 5.63755,-2.57145 10.24078,-3.85252 4.60322,-1.28106 8.68863,-2.84558 9.07869,-3.47669 0.39005,-0.63112 2.68441,-1.14749 5.09857,-1.14749 2.41417,0 7.02876,-1.38558 10.25465,-3.07906 3.22588,-1.69349 9.18305,-4.40952 13.23815,-6.03563 4.05509,-1.62611 9.94259,-5.30549 13.08332,-8.1764 3.14074,-2.87092 8.37293,-6.78018 11.6271,-8.68725 3.25418,-1.90707 5.91668,-4.30168 5.91668,-5.32134 0,-1.01967 1.2004,-2.23494 2.66756,-2.7006 1.46716,-0.46566 4.23837,-2.90609 6.15825,-5.42318 1.91988,-2.5171 4.2232,-4.57654 5.11849,-4.57654 0.89529,0 4.57407,-3.66827 8.17508,-8.15172 3.60101,-4.48345 8.80789,-10.93345 11.57085,-14.33333 4.30222,-5.29398 10.33674,-16.05561 21.14191,-37.70326 1.33281,-2.67024 2.82106,-7.34242 3.3072,-10.38261 0.54025,-3.37854 1.98096,-6.30559 3.70562,-7.52862 l 2.82171,-2.001 -3.33334,-2.62037 c -1.83333,-1.44119 -4.83333,-2.98742 -6.66666,-3.43605 -1.83334,-0.44863 -7.10399,-2.84685 -11.71257,-5.32936 -4.60857,-2.48252 -9.23792,-4.51368 -10.28743,-4.51368 -1.04952,0 -5.67886,-2.07038 -10.28744,-4.60085 -10.48301,-5.75599 -22.99845,-9.20849 -26.5299,-7.31851 -1.3838,0.74058 -2.51979,1.77541 -2.52443,2.29961 -0.005,0.5242 -1.7539,1.94606 -3.88726,3.1597 -2.13335,1.21364 -5.27956,4.66428 -6.99157,7.6681 -1.712,3.00382 -4.13295,5.79182 -5.37987,6.19556 -1.24692,0.40374 -3.49702,2.72407 -5.00021,5.15628 -1.58493,2.56447 -6.45008,6.596 -11.58111,9.59674 -4.86642,2.84598 -11.15491,7.41327 -13.97443,10.14952 -2.81952,2.73625 -8.28781,6.59861 -12.15176,8.58303 -3.86395,1.98442 -8.45628,4.69616 -10.20517,6.02609 -1.7489,1.32994 -4.18661,2.41807 -5.41713,2.41807 -1.23052,0 -5.19961,1.40917 -8.82019,3.1315 -10.73386,5.10615 -21.26861,6.42199 -48.388,6.04386 l -24.86154,-0.34664 -5.3987,10.85122 c -2.96928,5.96817 -6.34937,11.9317 -7.51131,13.2523 -3.10368,3.52747 -7.75666,13.23618 -7.75666,16.18471 0,5.12982 2.91905,5.51267 11.33334,1.48643 4.4,-2.1054 9.32177,-3.85246 10.93726,-3.88236 1.6155,-0.0299 4.3155,-0.59714 6,-1.26054 1.68451,-0.6634 6.50473,-1.95731 10.71161,-2.87535 4.20688,-0.91804 8.64988,-2.77526 9.87332,-4.12715 1.22344,-1.35189 3.29604,-2.45798 4.60577,-2.45798 1.30973,0 2.72362,-0.55384 3.14197,-1.23075 0.41836,-0.67692 2.70377,-1.65084 5.07869,-2.16429 2.37493,-0.51344 7.1481,-2.3596 10.60705,-4.10258 3.45896,-1.74298 7.31171,-3.16905 8.56168,-3.16905 1.24997,0 3.21992,-0.84934 4.37766,-1.88742 1.15775,-1.03809 5.86149,-2.8562 10.45278,-4.04025 4.59128,-1.18406 12.90605,-4.2301 18.47726,-6.76898 5.57122,-2.53888 10.66306,-4.28638 11.31521,-3.88333 0.65215,0.40305 4.63738,-0.754 8.85607,-2.57121 4.21868,-1.81722 10.30828,-3.67276 13.53243,-4.12343 3.22416,-0.45067 8.79242,-2.07998 12.37391,-3.6207 12.50019,-5.37744 8.69858,0.82065 -4.236,6.90631 -3.3,1.55264 -7.2,3.48935 -8.66667,4.30381 -8.93974,4.96437 -34.39503,17.01853 -35.93875,17.01853 -1.01462,0 -6.54347,2.34896 -12.28634,5.21991 -5.74287,2.87094 -13.74158,6.54126 -17.77491,8.15625 -4.03333,1.61499 -14.53333,6.39348 -23.33333,10.61886 -8.8,4.22538 -19,8.75675 -22.66667,10.06971 -3.66667,1.31295 -7.61391,3.18551 -8.77166,4.16123 -1.15774,0.97572 -2.83283,1.77404 -3.72241,1.77404 -0.88959,0 -2.81703,1.1176 -4.2832,2.48354 -2.30934,2.15148 -2.44955,2.9581 -1.04864,6.03275 1.80214,3.95527 5.46364,6.47625 19.43441,13.38079 5.24192,2.59062 9.90984,5.32358 10.37315,6.07324 0.46332,0.74966 2.15698,1.36671 3.76371,1.37123 1.60672,0.005 4.67425,0.92234 6.81673,2.03961 2.14249,1.11727 6.64249,2.29149 10,2.60937 3.35752,0.31788 7.90458,1.14802 10.10458,1.84475 2.2,0.69673 4.9,0.91807 6,0.49186 1.1,-0.42621 5.95793,-1.12418 10.7954,-1.55103 z M 265.9283,550.78268 c 0.41379,-0.66952 3.27381,-1.64331 6.3556,-2.16398 14.81699,-2.50331 53.04944,-21.15154 53.04944,-25.87534 0,-0.61652 -1.6134,-1.52588 -3.58534,-2.0208 -1.97194,-0.49493 -5.18768,-2.04083 -7.1461,-3.43535 -1.95841,-1.39451 -8.89501,-4.42513 -15.41466,-6.73471 -6.51964,-2.30958 -18.7539,-7.52439 -27.18723,-11.58846 -8.43334,-4.06408 -19.53334,-8.50319 -24.66667,-9.86469 -5.13334,-1.3615 -9.5148,-3.01022 -9.73658,-3.66381 -0.22179,-0.65359 -3.82179,-2.79525 -8,-4.75925 -17.74854,-8.34282 -21.15228,-9.8783 -25.29502,-11.41104 -2.40071,-0.88822 -4.80071,-2.31372 -5.33333,-3.16778 -0.53262,-0.85406 -7.13925,-4.48901 -14.68139,-8.07767 C 170.23538,451.33382 165.51106,448 170.08809,448 c 5.31717,0 37.96441,9.54937 45.30379,13.25143 4.30565,2.17181 10.85388,4.66512 14.55162,5.54067 3.69775,0.87556 15.12317,4.85339 25.38984,8.83962 10.26667,3.98623 23.16667,8.71375 28.66667,10.5056 10.45126,3.40493 16.91612,6.02469 22.87239,9.26858 1.94648,1.06009 4.73095,1.92743 6.18772,1.92743 1.45677,0 5.2642,1.18683 8.46095,2.63739 3.19675,1.45056 7.53222,2.65056 9.63437,2.66666 3.29138,0.0252 3.72312,-0.38729 3.10928,-2.97071 -2.07783,-8.74471 -10.65814,-25.47147 -16.21693,-31.61388 -1.12628,-1.24452 -2.04778,-3.19554 -2.04778,-4.3356 0,-3.26351 -4.13735,-3.8718 -34.26461,-5.03778 l -28.26461,-1.0939 -10.16679,-5.12609 c -24.78074,-12.49443 -32.64236,-16.92327 -42.81613,-24.12042 -12.27276,-8.68203 -24.97958,-20.55517 -33.8212,-31.60223 -3.3,-4.12314 -7.6202,-8.37566 -9.60045,-9.45003 -5.25277,-2.84986 -11.79243,-2.39611 -17.09004,1.18578 -4.01779,2.71656 -19.74799,9.78672 -32.65108,14.67549 -11.068455,4.19366 -17.529386,12.45802 -16.021829,20.49399 0.88756,4.7311 12.269769,27.58485 19.768089,39.69133 7.06328,11.40407 30.40345,39.04821 37.13734,43.98553 2.01121,1.47463 8.58056,6.73114 14.59854,11.68114 6.01799,4.95 11.6748,9 12.57069,9 0.89589,0 2.38706,0.91355 3.31372,2.0301 1.01095,1.21812 2.72151,1.70108 4.2767,1.20748 1.69022,-0.53645 3.69684,0.21546 5.76824,2.16144 2.17698,2.04516 5.39256,3.18504 10.2199,3.6228 3.87393,0.3513 8.00629,1.47916 9.18301,2.50635 3.34568,2.92053 18.9665,6.75981 37.16795,9.13512 9.15105,1.19422 16.90048,2.43353 17.22097,2.75401 0.96454,0.96455 2.60024,0.65923 3.39988,-0.63462 z m 374.45028,-7.60569 c 1.33167,-1.33167 22.76973,-9.79401 24.95477,-9.85051 2.28819,-0.0592 13.57036,-4.99009 14.62969,-6.39397 0.387,-0.51288 4.00364,-2.03238 8.03697,-3.37666 4.03334,-1.34429 9.73334,-3.50447 12.66667,-4.80041 2.93333,-1.29594 7.93009,-3.45828 11.10389,-4.8052 6.19485,-2.629 9.95549,-8.38313 13.47429,-20.61691 2.15193,-7.4816 3.93177,-11.42625 7.75301,-17.18291 1.64883,-2.48393 3.65371,-6.95185 4.45529,-9.92871 1.80808,-6.71469 0.10783,-8.33487 -10.08297,-9.60813 -8.5339,-1.06624 -12.413,0.67917 -21.77438,9.79744 -3.64828,3.55353 -14.93484,13.61477 -25.08124,22.35831 -24.8675,21.42926 -48.89103,44.41718 -50.48422,48.30793 -1.0466,2.55596 -0.79969,3.55009 1.25484,5.05241 2.63411,1.9261 7.63826,2.50245 9.09339,1.04732 z m -203.85394,-2.64032 c 1.84108,-0.70649 1.85683,-1.22063 0.13914,-4.54228 -2.30142,-4.45045 -27.23526,-29.32772 -29.39441,-29.32772 -0.82422,0 -3.63281,-2.25 -6.24132,-5 -2.60851,-2.75 -6.45694,-6.57163 -8.55206,-8.4925 -2.09512,-1.92087 -6.20932,-6.03751 -9.14265,-9.14807 -2.93333,-3.11057 -9.83333,-8.98607 -15.33333,-13.05666 -5.5,-4.0706 -13.11125,-10.01725 -16.91389,-13.21479 -6.48151,-5.45013 -7.27364,-5.75873 -12.66666,-4.93471 -7.88312,1.2045 -10.41945,2.74252 -10.41945,6.3183 0,5.61554 4.09228,16.8968 6.72596,18.54155 1.43405,0.89559 2.60957,2.23401 2.61227,2.97427 0.003,0.74027 1.78204,5.84594 3.95411,11.34594 2.17206,5.5 3.96985,11.90957 3.9951,14.24348 0.0342,3.16532 0.78364,4.47764 2.94955,5.16507 1.59701,0.50687 9.54701,4.08177 17.66666,7.94423 8.11966,3.86245 17.16301,7.7684 20.09635,8.67988 2.93333,0.91148 7.05123,2.52753 9.15088,3.59122 5.09409,2.58068 17.28258,5.69494 22.58084,5.76959 2.34755,0.0331 6.06828,0.88435 8.26828,1.89171 4.50678,2.06362 7.48529,2.4178 10.52463,1.25149 z M 452.61068,509 c -0.93851,-5.55684 -16.89549,-40.1946 -19.16231,-41.59558 -0.63412,-0.39191 -1.56613,-2.36823 -2.07113,-4.39182 -0.505,-2.0236 -2.37147,-5.58923 -4.14771,-7.92364 -1.77624,-2.3344 -3.22952,-5.55205 -3.22952,-7.15034 0,-1.59828 -1.55338,-4.78831 -3.45195,-7.08896 -3.35575,-4.06642 -14.38434,-22.66138 -26.11207,-44.02676 -3.17313,-5.78073 -7.04035,-11.348 -8.59385,-12.3717 -2.88684,-1.90234 -20.50246,-4.4229 -31.03778,-4.44108 L 348.94204,380 l 0.83102,9.83087 c 0.45705,5.40698 1.53305,11.55698 2.3911,13.66667 0.85805,2.10969 1.95292,9.68303 2.43305,16.82965 1.03385,15.38866 1.67692,16.49669 16.8632,29.05567 5.79678,4.7939 13.2396,11.28077 16.5396,14.41526 3.3,3.1345 7.8,6.65442 10,7.82205 2.2,1.16763 4.6,2.86281 5.33333,3.76706 1.89484,2.33647 20.15443,18.03279 25.14782,21.61759 2.30203,1.65264 6.58552,4.57615 9.51885,6.49667 2.93333,1.92053 6.72682,5.21836 8.42997,7.32852 4.76459,5.90321 7.35714,5.13559 6.1807,-1.83001 z m 169.45072,-0.5755 c 7.02873,-3.92843 16.69336,-12.72787 19.13774,-17.4245 0.96829,-1.86047 2.7928,-3 4.80334,-3 1.92734,0 5.13433,-1.89236 7.90864,-4.66667 2.56667,-2.56666 5.58204,-4.66666 6.70083,-4.66666 1.11879,0 3.68879,-1.86032 5.71111,-4.13405 2.02232,-2.27372 5.44966,-5.05258 7.61631,-6.17525 2.16665,-1.12267 6.89177,-4.81235 10.50027,-8.19929 3.6085,-3.38694 8.95638,-8.40808 11.88417,-11.15808 2.9278,-2.75 6.46149,-5 7.85266,-5 4.49645,0 7.80829,-7.58513 7.8592,-18 0.0251,-5.13333 1.15694,-17.43333 2.5152,-27.33333 1.35827,-9.9 2.24722,-18.24276 1.97545,-18.53947 -0.27177,-0.29671 -7.79434,0.43605 -16.71683,1.62835 -13.178,1.76095 -16.83947,2.73805 -19.50895,5.20613 -4.14931,3.83626 -9.77222,12.42779 -11.73889,17.93645 -0.83088,2.32731 -4.89716,9.26881 -9.03617,15.42555 -4.13901,6.15674 -7.52547,12.39799 -7.52547,13.86945 0,1.47145 -1.53073,4.11342 -3.40163,5.87104 -4.09844,3.85028 -12.58149,19.43663 -12.64077,23.22553 -0.0233,1.49067 -0.92332,3.87498 -2,5.29847 -1.07668,1.4235 -1.9576,3.60449 -1.9576,4.84666 0,1.24216 -1.5213,3.25527 -3.38066,4.47357 -1.85936,1.2183 -4.6141,5.03731 -6.12164,8.48668 -1.50754,3.44937 -4.18624,9.1219 -5.95267,12.60562 -3.20368,6.31822 -4.25539,12.9993 -2.0463,12.9993 0.64097,0 4.04417,-1.60897 7.56266,-3.5755 z M 130.66667,496 c 0,-0.73333 -0.26459,-1.33333 -0.58798,-1.33333 -0.32339,0 -0.9588,0.6 -1.41202,1.33333 -0.45323,0.73333 -0.18864,1.33333 0.58798,1.33333 0.77661,0 1.41202,-0.6 1.41202,-1.33333 z m 462.27194,-17.19456 c 2.34957,-2.83057 6.15129,-8.33389 8.44828,-12.22959 2.29699,-3.89571 7.72462,-12.07576 12.0614,-18.1779 4.33678,-6.10214 7.88506,-11.59502 7.88506,-12.20639 0,-0.61138 1.27187,-2.25459 2.82639,-3.65158 1.55452,-1.39699 4.7552,-5.53998 7.11262,-9.20665 2.35742,-3.66666 5.28554,-7.49013 6.50694,-8.49659 1.22139,-1.00646 2.22071,-2.75991 2.22071,-3.89656 0,-1.13665 2.91206,-5.4147 6.47123,-9.50677 3.55918,-4.09207 7.83753,-10.13862 9.50745,-13.43677 1.66992,-3.29815 4.23082,-7.69171 5.69088,-9.76347 2.91506,-4.1363 2.79167,-7.08021 -1.01571,-24.23317 -1.13943,-5.13333 -2.82696,-13.43913 -3.75008,-18.45733 -2.12284,-11.54008 -4.16912,-12.99222 -11.95652,-8.48494 -3.08765,1.7871 -8.01391,4.00258 -10.94725,4.92328 -6.49786,2.03951 -12.16716,7.09378 -13.27149,11.83176 -0.45132,1.93631 -1.64185,5.32056 -2.64562,7.52056 -1.00377,2.2 -3.4159,9.4 -5.36029,16 -1.94439,6.6 -5.25283,17.7 -7.35209,24.66667 -5.84432,19.39516 -12.04604,43.038 -12.04137,45.90534 0.004,2.54356 -1.39423,7.49351 -4.79699,16.98034 -0.96382,2.68713 -2.16394,10.33713 -2.66692,17 -1.06563,14.11622 0.1294,15.28531 7.07337,6.91976 z m -112.9386,-4.35492 c 0,-4.51888 -0.94376,-11.56888 -2.09724,-15.66666 -1.15348,-4.09779 -3.21333,-11.35053 -4.57743,-16.11719 -4.67999,-16.35354 -6.86148,-26.59315 -5.9721,-28.0322 0.48967,-0.7923 -0.91288,-6.05918 -3.11679,-11.70418 -5.36836,-13.75031 -13.258,-42.03024 -15.18659,-54.43542 l -1.56219,-10.04845 -7.4105,-3.69796 c -4.07577,-2.03388 -9.01433,-4.08417 -10.97458,-4.5562 -1.96025,-0.47203 -6.25738,-2.91407 -9.54916,-5.42675 -5.52756,-4.21928 -6.13384,-4.39767 -7.93125,-2.33367 -3.58035,4.11139 -4.95551,8.01304 -4.95551,14.06 0,6.46541 -2.89947,21.7733 -5.33987,28.19202 -1.8432,4.84799 -0.67925,11.86167 2.48734,14.98807 1.29689,1.28044 7.10364,9.52807 12.90387,18.32807 5.80024,8.8 12.88042,18.54185 15.73373,21.64856 2.85332,3.10671 7.06894,8.64016 9.36806,12.29657 3.60765,5.73744 11.92704,18.03854 30.02029,44.3882 6.09406,8.87494 8.15992,8.39827 8.15992,-1.88281 z M 558.66668,463.677 c 0,-0.73139 2.82468,-7.10792 6.27707,-14.17007 3.45239,-7.06214 7.57009,-17.04026 9.15044,-22.1736 C 575.67455,422.2 577.89571,415.3 579.0301,412 c 2.14207,-6.23139 5.54744,-17.53176 10.4468,-34.66667 1.57261,-5.5 4.28365,-14.30579 6.02453,-19.56842 1.74089,-5.26263 3.16525,-10.82455 3.16525,-12.35983 0,-1.53527 1.56441,-5.26959 3.47646,-8.29848 3.07977,-4.87867 3.23191,-5.64392 1.33333,-6.70642 -1.17872,-0.65964 -2.14312,-1.98704 -2.14312,-2.94976 0,-0.96272 -1.65,-3.831 -3.66667,-6.37394 -2.01667,-2.54294 -6.36667,-9.81833 -9.66667,-16.16754 -3.3,-6.3492 -6.64541,-11.55111 -7.43425,-11.55981 -0.78883,-0.009 -2.88883,1.54403 -4.66666,3.45048 -1.77783,1.90646 -7.48515,6.41416 -12.68294,10.01711 -5.19778,3.60295 -10.24917,8.04313 -11.2253,9.86705 C 550.84304,318.82848 549.06432,320 546.95582,320 h -3.26025 l 0.88853,38.33333 c 0.48869,21.08334 1.46707,46.63995 2.17418,56.79248 1.25048,17.95415 5.63864,48.94701 7.31405,51.65787 0.94836,1.53448 4.59435,-0.93093 4.59435,-3.10668 z m -47.42931,-1.9077 c 0.4708,-1.22689 2.48486,-10.07689 4.47568,-19.66667 3.57995,-17.24459 3.61968,-18.01081 3.61999,-69.80934 l 3e-4,-52.37337 -7.33333,-6.64433 c -4.03333,-3.65438 -9.76161,-8.38144 -12.72951,-10.50458 -2.96789,-2.12313 -7.13754,-6.61516 -9.26588,-9.98229 -2.12834,-3.36713 -4.50006,-6.09086 -5.27049,-6.05274 -0.77043,0.0381 -6.12104,9.59305 -11.89025,21.23317 l -10.48946,21.16386 2.28356,10.43349 c 2.62373,11.98775 10.94419,37.82138 12.78657,39.70017 0.68317,0.69666 1.24213,2.74393 1.24213,4.54947 0,2.98244 2.85275,14.17121 5.31616,20.85053 3.37213,9.14321 7.14931,20.74457 8.23095,25.28084 0.69256,2.90446 1.95477,6.11897 2.80493,7.14334 0.85016,1.02438 2.47246,4.348 3.60511,7.38583 6.8123,18.27091 7.4247,19.52332 9.54649,19.52332 1.21608,0 2.59625,-1.00382 3.06705,-2.2307 z M 298.00001,446.60735 c 2.93333,-0.61535 10.03608,-1.54127 15.78388,-2.05761 9.28071,-0.83371 10.61349,-1.29642 11.90613,-4.13345 1.32688,-2.91217 0.70048,-3.95652 -7.08408,-11.8109 -4.69681,-4.73893 -9.75457,-9.00071 -11.23946,-9.4706 -1.4849,-0.4699 -9.56621,-7.40944 -17.95848,-15.42119 -8.39228,-8.01175 -19.72787,-17.5008 -25.19021,-21.08678 -10.05484,-6.6009 -26.83026,-21.68165 -51.12483,-45.96015 -13.943,-13.93378 -17.14397,-18.00662 -14.13987,-17.99122 2.29578,0.0118 7.02937,3.30191 16.29288,11.32455 4.23379,3.66667 10.62475,9.18938 14.20214,12.27269 3.57739,3.08331 8.85362,6.30988 11.72496,7.17015 3.25437,0.97504 5.76343,2.75549 6.66186,4.72732 0.79268,1.73974 2.01761,3.16317 2.72206,3.16317 0.70446,0 3.9451,2.30592 7.20144,5.12425 3.25633,2.81834 10.34282,8.05222 15.74776,11.63085 5.40493,3.57863 11.63297,8.32271 13.84008,10.54242 2.20712,2.2197 5.80712,5.08352 8,6.36404 10.25019,5.98553 30.50818,20.0085 31.72001,21.9572 1.48,2.37995 8.23496,5.71458 11.57603,5.71458 1.5261,0 3.15703,0.99628 3.6243,2.21395 0.72409,1.88696 1.00922,1.78239 1.93046,-0.70794 1.16596,-3.15191 -1.75201,-16.55991 -4.26216,-19.58445 -0.80396,-0.96872 -1.79915,-6.44737 -2.21151,-12.17477 -0.41237,-5.7274 -1.24281,-11.3754 -1.84543,-12.55111 -0.63335,-1.23567 -4.27918,-2.777 -8.64043,-3.65286 -4.14961,-0.83336 -9.42563,-2.65669 -11.72448,-4.05185 -2.29884,-1.39515 -6.12284,-2.94753 -8.49776,-3.44972 -2.37493,-0.5022 -4.66564,-1.4755 -5.09047,-2.16289 -0.42483,-0.68739 -3.02887,-2.40096 -5.78674,-3.80792 -2.75788,-1.40696 -9.46717,-6.19766 -14.90954,-10.64598 -5.44237,-4.44833 -10.59628,-8.0886 -11.45313,-8.0895 -0.85686,-9e-4 -2.76907,-1.95163 -4.24937,-4.33496 -1.4803,-2.38334 -5.12923,-6.70511 -8.10875,-9.60393 -2.97951,-2.89883 -5.41729,-5.78887 -5.41729,-6.4223 0,-0.63343 -1.482,-3.0947 -3.29333,-5.46948 -1.81134,-2.37477 -4.49235,-7.02835 -5.95781,-10.34127 -1.46546,-3.31292 -4.40398,-8.21237 -6.53004,-10.88766 -2.12605,-2.6753 -4.23944,-7.20231 -4.6964,-10.06002 -0.45697,-2.85772 -1.73276,-6.92524 -2.83509,-9.03893 -1.10233,-2.11369 -2.00794,-5.12661 -2.01245,-6.69537 -0.005,-1.56876 -1.15416,-4.26876 -2.55476,-6 -2.33349,-2.88436 -3.72013,-3.18553 -16.57401,-3.59975 -12.97176,-0.41801 -21.40405,0.4271 -36.87945,3.6962 -3.3,0.69711 -12,1.68164 -19.33333,2.18785 -7.33334,0.50621 -14.08334,1.51456 -15,2.24078 -2.04892,1.62323 -2.11587,9.93661 -0.20547,25.51367 1.57009,12.8023 8.33976,41.48897 10.37441,43.96188 0.68709,0.83508 5.15956,10.0352 9.93883,20.44471 8.55715,18.63792 18.8897,37.18158 23.62921,42.40695 1.33029,1.46667 3.04792,4.32743 3.81696,6.35724 0.76903,2.02982 2.78365,4.21732 4.47694,4.8611 1.69329,0.64379 3.82294,2.06727 4.73256,3.16329 0.90962,1.09603 4.63496,3.27521 8.27854,4.84263 3.64358,1.56743 6.62468,3.38354 6.62468,4.03582 0,1.10288 15.45156,12.07325 17.00495,12.07325 0.38559,0 1.36722,0.84808 2.1814,1.88461 1.87917,2.39237 19.21123,9.70667 25.80942,10.89182 2.75233,0.49436 5.90424,1.42296 7.00424,2.06354 2.23581,1.30201 29.7295,0.16902 38,-1.56595 z m 537.82893,-8.65264 c 12.47953,-6.1811 22.39496,-12.04093 25.45013,-15.04053 2.75287,-2.7028 9.5031,-9.21236 15.00053,-14.46569 5.57918,-5.33146 13.86232,-15.34605 18.74776,-22.66667 20.32143,-30.45077 29.1845,-49.7965 30.74819,-67.11515 0.36416,-4.03334 1.86661,-10.12334 3.33876,-13.53335 1.87321,-4.33898 2.96254,-10.84256 3.62909,-21.66667 0.52385,-8.50666 0.72089,-15.50929 0.43787,-15.56141 -0.28302,-0.0521 -5.91458,-0.66743 -12.51458,-1.36736 -25.32605,-2.68583 -34.93041,-3.83159 -42.45909,-5.06518 -4.28583,-0.70225 -13.66365,-1.69306 -20.83961,-2.20181 -12.05176,-0.85443 -13.25555,-0.71665 -15.77814,1.80594 -1.62512,1.62513 -3.06444,5.33438 -3.55455,9.16039 -0.90658,7.07724 -5.95508,18.11989 -15.74054,34.42945 -5.79178,9.65323 -9.40886,15.16019 -18.60574,28.32694 -5.49356,7.86489 -27.10648,25.35041 -38.27556,30.96611 -5.87817,2.95549 -11.7509,5.3927 -13.05051,5.41602 -1.29962,0.0233 -3.52761,0.92332 -4.95111,2 -1.42349,1.07668 -3.52349,1.96094 -4.66666,1.96503 -4.95831,0.0177 -12.167,2.99991 -13.56475,5.61162 -0.83469,1.55964 -2.27289,8.28339 -3.19599,14.94166 -0.9231,6.65827 -2.45838,14.00194 -3.41174,16.31926 -1.39008,3.37886 -1.40979,5.29334 -0.0995,9.66666 1.74493,5.82407 5.27056,7.38798 6.45391,2.86286 0.4049,-1.54836 2.31855,-2.95096 4.75679,-3.48649 2.24364,-0.49279 5.53198,-2.62233 7.30742,-4.73232 1.77544,-2.10998 5.13505,-4.74126 7.46581,-5.84727 2.33076,-1.10602 5.74377,-3.36075 7.58447,-5.01051 1.8407,-1.64977 7.53436,-5.89571 12.65258,-9.43544 5.11821,-3.53973 13.27754,-9.53973 18.13183,-13.33334 22.99797,-17.9728 47.30927,-36.05883 56.1213,-41.7506 5.34566,-3.45281 13.15013,-8.54723 17.34326,-11.32093 7.97278,-5.27388 12.29467,-4.95306 4.72513,0.35075 -3.71296,2.6016 -10.00401,7.92747 -29.01567,24.56407 -12.35758,10.81379 -27.52024,25.38557 -28.5057,27.39486 -0.6448,1.3147 -2.84719,2.97421 -4.8942,3.6878 -2.04701,0.71359 -6.87064,4.33248 -10.71918,8.04198 -3.84854,3.7095 -9.14615,8.1805 -11.77247,9.93555 -2.62632,1.75505 -9.21444,7.46781 -14.64028,12.69503 C 760.04235,419.72319 755.15451,424 754.60631,424 c -0.54819,0 -2.84054,2.1 -5.0941,4.66667 -2.25357,2.56666 -4.42414,4.66666 -4.82349,4.66666 -0.39936,0 -2.81026,1.35 -5.35757,3 -8.53276,5.52704 -4.29653,10.34803 7.44331,8.47076 3.20053,-0.51179 6.49093,-0.21823 8.27038,0.73785 6.00415,3.22598 11.50305,3.70889 35.64718,3.13057 l 24.69201,-0.59146 z M 375.55086,365 c -1.81565,-5.07323 -24.951,-40.9557 -28.08141,-43.55371 -1.17486,-0.97504 -2.13649,-2.44934 -2.13695,-3.27622 -4.6e-4,-0.82687 -2.70046,-4.94222 -6,-9.14523 -3.29954,-4.203 -5.99916,-8.02379 -5.99916,-8.49065 0,-0.46685 -1.75737,-2.85035 -3.90527,-5.29668 -2.1479,-2.44632 -6.38364,-8.69139 -9.41274,-13.87794 -3.02911,-5.18655 -7.27174,-11.23491 -9.42806,-13.4408 -2.15633,-2.20589 -3.9206,-4.80911 -3.9206,-5.78493 0,-0.97582 -1.3036,-3.43148 -2.8969,-5.45703 -3.58657,-4.55958 -7.76976,-12.64188 -7.76976,-15.01185 0,-2.39321 -4.99523,-12.04875 -8.85905,-17.12415 -3.20507,-4.21007 -4.03997,-7.20748 -2.00758,-7.20748 1.65604,0 14.09148,14.61895 16.64885,19.57218 1.20369,2.33136 3.36306,4.61162 4.7986,5.06724 2.44805,0.77699 13.41918,15.32564 13.41918,17.79499 0,0.62217 3.92889,6.17896 8.73087,12.34841 4.80198,6.16945 10.95198,14.18924 13.66667,17.82176 2.71468,3.63251 6.58579,8.22324 8.60246,10.20161 2.01666,1.97837 3.66666,4.83629 3.66666,6.35092 0,1.51463 2.55,5.62857 5.66667,9.14207 3.11667,3.51351 9.18961,11.63353 13.49543,18.04451 4.30582,6.41097 8.28303,11.65631 8.83824,11.65631 0.55521,0 1.70954,1.65 2.56518,3.66667 1.4846,3.49908 7.32251,11 8.56121,11 1.38956,0 2.15629,-4.99439 3.58771,-23.36995 0.83605,-10.73274 1.1728,-20.89784 0.74832,-22.5891 -0.50107,-1.99641 -2.62326,-3.81583 -6.05022,-5.18702 -2.90314,-1.16161 -5.92593,-3.32186 -6.71731,-4.80056 -0.79137,-1.4787 -3.03576,-3.08934 -4.98751,-3.5792 -1.95176,-0.48986 -6.11054,-3.64695 -9.24173,-7.01575 -6.54181,-7.03822 -18.83005,-25.52577 -20.8855,-31.42206 -0.76641,-2.19852 -2.51345,-4.9061 -3.8823,-6.01684 -4.25145,-3.44978 -15.28198,-36.16999 -17.08716,-50.68619 -0.68396,-5.5 -1.83693,-12.4 -2.56215,-15.33333 -1.88877,-7.63952 -1.68495,-12.29235 0.76459,-17.45436 2.89636,-6.10363 1.79738,-8.1083 -6.5367,-11.92377 -7.49905,-3.43318 -17.27729,-5.5379 -45.85828,-9.8708 -9.66984,-1.46595 -21.18486,-3.87924 -25.58894,-5.36286 -9.10036,-3.06569 -11.11989,-2.713 -13.46659,2.35181 -4.48648,9.68302 -5.83901,15.52171 -7.0097,30.25998 -2.18283,27.48051 -0.93993,46.13307 4.39783,66 1.47772,5.5 3.26539,12.7 3.9726,16 1.81055,8.44841 5.50929,18.95221 7.54916,21.43832 0.94993,1.15774 1.72715,3.076 1.72715,4.26278 0,2.3076 5.60496,13.4851 8.47599,16.90297 0.95293,1.13443 2.98329,4.25813 4.51193,6.94156 6.26864,11.00428 24.1325,30.45437 27.9707,30.45437 0.58662,0 1.77604,1.13601 2.64315,2.52447 2.99191,4.79081 19.35485,12.90737 37.0649,18.3854 8.15527,2.52258 38.17842,8.05247 44.88418,8.26712 l 4.88418,0.15634 z m 335.78249,1.4603 c 5.13333,-0.79884 13.2478,-1.59527 18.03215,-1.76984 6.63892,-0.24223 10.69696,-1.30877 17.13683,-4.50393 4.64091,-2.30259 9.05078,-4.18653 9.79972,-4.18653 0.74894,0 4.95574,-2.4 9.34844,-5.33333 4.3927,-2.93334 8.80693,-5.33334 9.80939,-5.33334 1.00247,0 2.19914,-1.5 2.65928,-3.33333 0.46013,-1.83333 1.23337,-3.33333 1.7183,-3.33333 2.01829,0 16.51213,-11.84248 18.89416,-15.43785 1.41948,-2.14252 4.67238,-6.59549 7.22869,-9.89549 6.67617,-8.61846 17.6734,-32.13241 20.68252,-44.22276 1.41805,-5.6976 3.4221,-12.02832 4.45344,-14.06826 3.37962,-6.68471 5.3334,-31.37545 4.56654,-57.70898 -0.69607,-23.90212 -1.82312,-30.93966 -6.52567,-40.74732 -0.7245,-1.51102 -1.12674,-4.51102 -0.89387,-6.66666 0.38752,-3.58714 0.0844,-3.90644 -3.57659,-3.76706 -2.2,0.0838 -9.4,1.46014 -16,3.0586 -6.6,1.59847 -18.9,3.49728 -27.33333,4.21957 -14.84919,1.27178 -24.60759,3.48779 -32.44139,7.367 -2.07609,1.02807 -5.18287,1.86921 -6.90394,1.86921 -3.11583,0 -3.13169,0.0841 -3.70745,19.66666 -0.33761,11.48282 -1.46317,23.27311 -2.70485,28.33334 -4.95713,20.20179 -8.04529,30.20717 -10.31204,33.41022 -1.32736,1.87562 -3.42968,5.95022 -4.67183,9.05466 -4.87246,12.17748 -18.60956,34.14034 -25.08188,40.10087 -1.93047,1.77783 -3.53535,3.87783 -3.56639,4.66667 -0.0731,1.85801 -7.72834,6.71637 -13.67555,8.67912 -5.58207,1.84225 -11.59578,9.86459 -11.61421,15.49346 -0.0194,5.90997 2.85292,30.12405 4.02457,33.92833 1.00777,3.27216 1.17009,3.18502 8.84573,-4.74911 4.30052,-4.44534 11.28786,-13.29534 15.52743,-19.66667 C 699.29111,325.2129 703.32669,320 704.0195,320 c 0.69281,0 2.42799,-2.29014 3.85597,-5.0892 1.42797,-2.79906 3.61692,-5.93622 4.86433,-6.97148 1.24741,-1.03526 5.7078,-6.99512 9.91197,-13.24414 11.75531,-17.4729 22.65388,-32.54627 24.64974,-34.09205 1.79094,-1.38708 10.48321,-13.62656 21.02363,-29.60313 3.02382,-4.58333 6.28769,-8.33333 7.25303,-8.33333 0.96535,0 1.75518,0.36044 1.75518,0.80098 0,1.02315 -13.27601,27.42302 -14.68364,29.19902 -0.58124,0.73333 -3.45007,5.88819 -6.3752,11.45524 -2.92513,5.56705 -8.73555,14.86705 -12.91206,20.66667 -10.47496,14.54581 -32.69577,49.9995 -32.69577,52.16667 0,0.97758 -1.51076,2.35181 -3.35724,3.05384 -1.84649,0.70203 -3.9597,2.86098 -4.69602,4.79767 -0.73633,1.93669 -4.06653,7.108 -7.40044,11.49181 -3.33391,4.38381 -5.73954,8.81001 -5.34583,9.836 0.86788,2.26163 8.30139,2.37443 21.4662,0.32573 z M 441.33334,318.10074 c 0,-1.04459 -1.7398,-6.29459 -3.86623,-11.66666 -2.12642,-5.37208 -4.25998,-12.46741 -4.74123,-15.76741 -1.18094,-8.09787 -4.73685,-22.82972 -6.1541,-25.49598 -0.63226,-1.18945 -2.04149,-5.98945 -3.13164,-10.66666 -1.09014,-4.67722 -4.06006,-16.00403 -6.59983,-25.1707 -2.53977,-9.16666 -5.3566,-19.36666 -6.25963,-22.66666 -0.90303,-3.3 -3.28341,-11.1 -5.28973,-17.33334 -4.11386,-12.78111 -8.70743,-34.36129 -7.55869,-35.51002 1.19309,-1.1931 3.60108,0.79694 3.60108,2.97604 0,1.08641 1.265,3.6863 2.81111,5.77753 1.54611,2.09122 5.91812,13.01712 9.71556,24.27976 3.79745,11.26265 7.39785,21.27588 8.00089,22.25162 0.60305,0.97574 1.85982,4.87555 2.79284,8.66624 1.43386,5.82554 3.65352,12.65191 10.04487,30.89217 5.75585,16.42659 7.49306,21.7624 10.63542,32.66666 6.93699,24.07186 11.03105,33.95708 14.25363,34.41572 2.52411,0.35923 3.27864,-0.72772 5.55336,-8 1.44781,-4.62865 4.71002,-12.36859 7.24935,-17.19987 5.36511,-10.20757 5.14198,-11.47164 -4.2093,-23.84663 -3.03292,-4.0136 -5.51439,-8.32 -5.51439,-9.56978 0,-1.24979 -2.07428,-6.25186 -4.6095,-11.11573 -8.40953,-16.13385 -11.1065,-37.86864 -8.85353,-71.35037 1.19799,-17.80359 1.97082,-22.23675 5.57853,-32 4.77837,-12.93133 5.88037,-18.51205 4.63516,-23.47337 -1.36445,-5.43637 -18.15098,-21.184875 -27.693,-25.980541 -4.61505,-2.31945 -9.98362,-5.341187 -11.93016,-6.714971 C 417.84764,85.124005 415.62243,84 414.84927,84 413.05834,84 387.83155,71.80133 380.27058,67.279125 l -5.72943,-3.426765 -4.0648,4.35138 c -4.55669,4.877953 -15.80968,26.917492 -15.80968,30.964044 0,1.442236 -0.89302,3.609016 -1.98449,4.815076 -2.21002,2.44205 -6.64305,19.39765 -8.02227,30.68381 C 344.16702,138.7 342.80129,144.7 341.62496,148 c -3.03853,8.52405 -2.96592,43.74305 0.11683,56.66667 1.22448,5.13333 3.16022,14.43333 4.30164,20.66666 1.14141,6.23334 3.45796,14.33334 5.14787,18 1.68992,3.66667 3.89671,9.33021 4.90399,12.58565 2.21116,7.14628 10.28209,19.94445 14.83717,23.52747 1.81787,1.42994 3.55174,3.2261 3.85305,3.99146 2.03338,5.1651 32.48141,25.38738 49.2145,32.68618 9.55964,4.16981 17.33333,5.05631 17.33333,1.97665 z M 639.711,316.65431 c 3.45896,-1.84013 8.37965,-4.54013 10.93488,-6 2.55522,-1.45987 5.63176,-2.65431 6.83674,-2.65431 1.20498,0 2.93781,-0.9 3.85073,-2 0.91292,-1.1 2.3383,-2 3.16752,-2 3.64857,0 21.62172,-14.85192 22.91882,-18.93872 0.44468,-1.40105 2.1809,-3.06915 3.85828,-3.70689 3.06081,-1.16372 15.38871,-16.18742 15.38871,-18.75384 0,-0.75331 2.7,-7.25993 6,-14.45915 3.3,-7.19921 6,-13.80006 6,-14.66856 0,-0.86849 1.14306,-3.81966 2.54014,-6.55815 5.33972,-10.46672 6.53971,-42.60346 2.79733,-74.91469 -1.91264,-16.51353 -2.06042,-17.25629 -3.7743,-18.97017 -0.85974,-0.85974 -1.5895,-3.69316 -1.62169,-6.2965 -0.0322,-2.60333 -0.97912,-7.13333 -2.1043,-10.06666 -1.12517,-2.93334 -2.49995,-7.43334 -3.05505,-10 -0.5551,-2.56667 -2.90817,-7.733029 -5.22904,-11.480802 -2.32086,-3.747772 -4.21976,-7.751737 -4.21976,-8.897699 0,-1.145963 -1.41558,-3.779603 -3.14574,-5.852535 -1.73016,-2.072932 -4.14556,-5.718967 -5.36757,-8.102301 C 694.26469,69.95 692.661,68 691.92295,68 c -2.51892,0 -9.91933,3.582572 -11.6088,5.619875 -1.45538,1.755018 -14.04625,8.333357 -22.31414,11.658446 -7.33524,2.950006 -22.84917,9.666736 -24.18917,10.472657 -4.21112,2.532717 -20.38043,14.096092 -24.46175,17.493662 l -4.65092,3.87174 4.26556,17.77514 c 2.34606,9.77633 5.03247,21.07515 5.96981,25.10848 2.31448,9.95917 1.82559,45.21003 -0.8571,61.7992 -1.16803,7.22289 -3.56642,16.22289 -5.32975,20 -1.76332,3.7771 -3.87784,9.425 -4.69893,12.55088 -0.82109,3.12588 -4.16773,8.9674 -7.43698,12.98116 -4.16687,5.11579 -5.9441,8.52411 -5.9441,11.39939 0,5.84178 3.93513,17.31631 7.3661,21.47897 1.60609,1.94861 3.30039,5.92069 3.7651,8.82683 0.46471,2.90615 1.7154,6.00634 2.77931,6.8893 1.60022,1.32807 2.44712,0.60941 4.90249,-4.16017 C 611.11214,308.5945 614.0727,301.5 616.0587,296 c 1.986,-5.5 5.54588,-15.1 7.91085,-21.33333 2.36496,-6.23334 5.39612,-14.93334 6.7359,-19.33334 3.41988,-11.23128 6.20694,-19.6622 10.57841,-32 2.07866,-5.86666 4.50044,-13.81851 5.38174,-17.67077 0.8813,-3.85227 2.14207,-7.33768 2.80172,-7.74536 0.65965,-0.40769 1.19936,-2.15654 1.19936,-3.88634 0,-1.7298 1.5,-6.13153 3.33333,-9.78161 1.83334,-3.65009 3.33334,-7.51937 3.33334,-8.59842 0,-1.07904 1.31002,-5.11416 2.91116,-8.96694 2.31261,-5.56475 3.10133,-6.491 3.83603,-4.50493 1.21283,3.2786 -1.76634,20.31314 -5.56518,31.82104 -2.77757,8.41412 -7.84868,28.82844 -7.84868,31.5957 0,1.59264 -1.1143,5.33514 -2.47622,8.31667 -1.36193,2.98153 -3.11427,7.82096 -3.8941,10.7543 C 643.51653,247.6 641.39318,255.4 639.5778,262 c -6.09324,22.15262 -7.59693,27.9658 -8.96721,34.66667 -0.74981,3.66666 -2.29956,9.53898 -3.44389,13.04958 -1.14433,3.5106 -1.7438,7.2606 -1.33216,8.33333 1.12381,2.92859 6.82663,2.35517 13.87646,-1.39527 z m -78.91831,-23.25896 c 7.40264,-7.00078 16.55264,-15.60362 20.33333,-19.11743 3.7807,-3.5138 6.87399,-7.49034 6.87399,-8.83674 0,-1.3464 0.88026,-3.17854 1.95613,-4.07144 2.32438,-1.92906 11.37721,-20.60214 11.37721,-23.46753 0,-1.09782 1.05,-3.5992 2.33333,-5.55862 2.04598,-3.12386 2.31883,-7.01781 2.21561,-31.61976 -0.0953,-22.71403 -0.53966,-29.16823 -2.33333,-33.89147 -1.21859,-3.20886 -2.21561,-8.53627 -2.21561,-11.83868 0,-6.80889 -5.40236,-22.96576 -9.36236,-28.00009 -1.45071,-1.84427 -2.63812,-4.0223 -2.6387,-4.84007 -0.002,-2.83107 -7.63737,-17.50978 -11.87028,-22.820187 -5.17845,-6.496622 -18.79533,-27.292827 -18.79533,-28.704919 0,-1.377542 -9.10374,-9.295081 -10.68766,-9.295081 -0.69385,0 -1.61352,-1.35 -2.04371,-3 -0.4302,-1.65 -3.54799,-4.910407 -6.92843,-7.24535 -5.93967,-4.102662 -6.28153,-4.175391 -10.17133,-2.163897 -4.52189,2.338363 -21.7604,19.115832 -25.4225,24.742581 -1.31252,2.016666 -3.07575,3.666666 -3.91828,3.666666 -0.84253,0 -2.96661,3.021961 -4.72017,6.715469 -1.75356,3.693508 -6.03952,11.230755 -9.52434,16.749438 -3.48482,5.51868 -6.73379,11.64672 -7.21993,13.61787 -0.48614,1.97114 -2.92643,8.12527 -5.42286,13.67586 -5.40337,12.01388 -8.09649,22.34859 -9.34906,35.87651 -0.50765,5.48267 -1.74846,12.3081 -2.75737,15.16764 -4.94435,14.0138 -0.0839,48.07449 9.7697,68.46287 8.60654,17.8081 29.70524,45.57205 38.86453,51.14215 2.07236,1.26028 5.05461,3.92716 6.62722,5.9264 3.67236,4.66865 6.42647,3.58751 7.40796,-2.90804 0.42325,-2.80106 1.38465,-30.59283 2.13646,-61.7595 1.33242,-55.23618 3.38408,-102.75094 4.8292,-111.84034 2.98548,-18.77781 6.95611,30.41004 8.54383,105.84034 1.25181,59.47149 1.83183,71.59198 3.55982,74.38792 0.89147,1.44243 2.83662,-0.12944 18.55293,-14.99257 z" id="path1" />
    </g>
</svg>